<?xml version="1.0" encoding="UTF-8"?>
<svg width="100px" height="100px" viewBox="0 0 100 100" version="1.1" xmlns="http://www.w3.org/2000/svg">
  <g stroke="none" stroke-width="1" fill="none" fill-rule="evenodd">
    <circle cx="50" cy="50" r="5" fill="#138808"></circle>
    <path d="M50,20 C45,35 35,45 20,50 C35,55 45,65 50,80 C55,65 65,55 80,50 C65,45 55,35 50,20 Z" stroke="#138808" stroke-width="2" fill="#138808" opacity="0.7"></path>
    <path d="M50,30 C47,40 40,47 30,50 C40,53 47,60 50,70 C53,60 60,53 70,50 C60,47 53,40 50,30 Z" stroke="#138808" stroke-width="1" fill="white"></path>
    <path d="M30,30 C35,38 35,62 30,70 M70,30 C65,38 65,62 70,70 M30,30 C38,35 62,35 70,30 M30,70 C38,65 62,65 70,70" stroke="#138808" stroke-width="1.5" stroke-linecap="round"></path>
  </g>
</svg> 