<?xml version="1.0" encoding="UTF-8"?>
<svg width="200" height="200" viewBox="0 0 200 200" xmlns="http://www.w3.org/2000/svg">
  <!-- Background -->
  <rect width="200" height="200" fill="#f5f5f5" rx="10" ry="10"/>
  
  <!-- Body -->
  <path d="M75 120 Q100 140 125 120 L125 180 L75 180 Z" fill="#7a4d0b"/>
  
  <!-- Shirt/Saree -->
  <path d="M75 120 Q100 140 125 120 L125 165 L75 165 Z" fill="#802057"/>
  <path d="M85 120 L85 165 L95 165 L95 125 Z" fill="#f1c232"/>
  
  <!-- Neck -->
  <path d="M90 110 Q100 115 110 110 L110 120 L90 120 Z" fill="#e6b99e"/>
  
  <!-- Head -->
  <circle cx="100" cy="85" r="35" fill="#e6b99e"/>
  
  <!-- Curly Hair -->
  <path d="M65 85 Q60 65 75 55 Q90 45 100 45 Q110 45 125 55 Q140 65 135 85 Q130 100 115 110 Q105 115 95 115 Q85 115 75 110 Q60 100 65 85 Z" fill="#382618"/>
  <path d="M65 85 Q70 75 80 70 Q85 65 75 70 Q65 75 65 85 Z" fill="#382618"/>
  <path d="M135 85 Q130 75 120 70 Q115 65 125 70 Q135 75 135 85 Z" fill="#382618"/>
  <path d="M75 65 Q80 55 90 55 Q85 50 75 55 Q70 60 75 65 Z" fill="#382618"/>
  <path d="M125 65 Q120 55 110 55 Q115 50 125 55 Q130 60 125 65 Z" fill="#382618"/>
  
  <!-- Face Details -->
  <ellipse cx="85" cy="80" rx="5" ry="4" fill="#3d2314"/>
  <ellipse cx="115" cy="80" rx="5" ry="4" fill="#3d2314"/>
  <path d="M95 95 Q100 100 105 95" fill="none" stroke="#923b25" stroke-width="2" stroke-linecap="round"/>
  <path d="M100 92 L100 87" fill="none" stroke="#3d2314" stroke-width="1"/>
  
  <!-- Bindi -->
  <circle cx="100" cy="70" r="3" fill="#d01919"/>
  
  <!-- Jewelry -->
  <path d="M85 110 Q100 120 115 110" fill="none" stroke="#ffd966" stroke-width="2"/>
  <circle cx="85" cy="105" r="2" fill="#ffd966"/>
  <circle cx="115" cy="105" r="2" fill="#ffd966"/>
  
  <!-- Hands -->
  <path d="M75 130 L65 150" fill="none" stroke="#e6b99e" stroke-width="6" stroke-linecap="round"/>
  <path d="M125 130 L135 150" fill="none" stroke="#e6b99e" stroke-width="6" stroke-linecap="round"/>
</svg> 