<?xml version="1.0" encoding="UTF-8"?>
<svg width="200px" height="200px" viewBox="0 0 200 200" version="1.1" xmlns="http://www.w3.org/2000/svg">
  <g stroke="none" stroke-width="1" fill="none" fill-rule="evenodd">
    <!-- Background -->
    <circle cx="100" cy="100" r="95" fill="#f5f5f5" stroke="#dddddd" stroke-width="1"></circle>
    <rect x="0" y="150" width="200" height="50" fill="#800080"></rect>
    
    <!-- Face -->
    <circle cx="100" cy="85" r="55" fill="#f4e0b9"></circle>
    
    <!-- Hair - Styled -->
    <path d="M45,60 C45,30 155,30 155,60 L155,70 C155,40 45,40 45,70 Z" fill="#111111"></path>
    <path d="M45,35 C50,25 60,25 65,35" stroke="#111111" stroke-width="10" stroke-linecap="round"></path>
    <path d="M70,30 C75,20 85,20 90,30" stroke="#111111" stroke-width="10" stroke-linecap="round"></path>
    <path d="M110,30 C115,20 125,20 130,30" stroke="#111111" stroke-width="10" stroke-linecap="round"></path>
    <path d="M135,35 C140,25 150,25 155,35" stroke="#111111" stroke-width="10" stroke-linecap="round"></path>
    
    <!-- Eyebrows -->
    <path d="M70,65 C75,60 85,60 90,65" stroke="#111111" stroke-width="2" stroke-linecap="round"></path>
    <path d="M110,65 C115,60 125,60 130,65" stroke="#111111" stroke-width="2" stroke-linecap="round"></path>
    
    <!-- Eyes -->
    <ellipse cx="80" cy="75" rx="5" ry="4" fill="#333333"></ellipse>
    <ellipse cx="120" cy="75" rx="5" ry="4" fill="#333333"></ellipse>
    
    <!-- Nose -->
    <path d="M95,80 C100,90 105,90 110,80" stroke="#d4b79b" stroke-width="2" fill="transparent"></path>
    
    <!-- Lips -->
    <path d="M85,100 L115,100" stroke="#cc9980" stroke-width="2" stroke-linecap="round"></path>
    <path d="M85,106 C95,111 105,111 115,106" stroke="#cc9980" stroke-width="2" stroke-linecap="round" fill="transparent"></path>
    
    <!-- Dimples -->
    <circle cx="75" cy="100" r="3" fill="#e0ccaa"></circle>
    <circle cx="125" cy="100" r="3" fill="#e0ccaa"></circle>
    
    <!-- Ears -->
    <path d="M45,75 C40,85 40,95 45,105" stroke="#f4e0b9" stroke-width="10" stroke-linecap="round"></path>
    <path d="M155,75 C160,85 160,95 155,105" stroke="#f4e0b9" stroke-width="10" stroke-linecap="round"></path>
    
    <!-- Neck -->
    <path d="M85,140 L85,150 L115,150 L115,140" fill="#f4e0b9"></path>
    
    <!-- Shirt -->
    <path d="M85,150 L60,180 L140,180 L115,150" fill="#ffffff"></path>
    
    <!-- Party Symbol on Shirt -->
    <rect x="85" y="155" width="30" height="20" rx="2" fill="#800080"></rect>
    <rect x="90" y="158" width="20" height="14" rx="1" fill="#ffffff"></rect>
    <path d="M100,155 C97,152 97,152 100,150 C103,152 103,152 100,155 Z" fill="#800080"></path>
    
    <!-- Name -->
    <text font-family="Arial" font-size="14" font-weight="bold" fill="#ffffff" x="100" y="175" text-anchor="middle">ACTOR VIJAY</text>
  </g>
</svg> 