<?xml version="1.0" encoding="UTF-8"?>
<svg width="200px" height="200px" viewBox="0 0 200 200" version="1.1" xmlns="http://www.w3.org/2000/svg">
  <g stroke="none" stroke-width="1" fill="none" fill-rule="evenodd">
    <!-- Background circle -->
    <circle cx="100" cy="100" r="90" fill="#f0f0f0" stroke="#1a3a6c" stroke-width="2"></circle>
    
    <!-- Inner circle -->
    <circle cx="100" cy="100" r="70" fill="white" stroke="#1a3a6c" stroke-width="1"></circle>
    
    <!-- Temple tower silhouette -->
    <path d="M100,30 L120,40 L120,60 L130,60 L130,70 L140,70 L140,170 L60,170 L60,70 L70,70 L70,60 L80,60 L80,40 Z" fill="#1a3a6c"></path>
    
    <!-- Temple details -->
    <path d="M85,60 L115,60 M90,50 L110,50 M95,40 L105,40" stroke="white" stroke-width="1.5"></path>
    <path d="M70,80 L130,80 M70,90 L130,90 M70,100 L130,100 M70,110 L130,110 M70,120 L130,120 M70,130 L130,130 M70,140 L130,140 M70,150 L130,150 M70,160 L130,160" stroke="white" stroke-width="1"></path>
    
    <!-- Small shrine windows -->
    <rect x="80" y="90" width="10" height="15" rx="2" fill="white"></rect>
    <rect x="95" y="90" width="10" height="15" rx="2" fill="white"></rect>
    <rect x="110" y="90" width="10" height="15" rx="2" fill="white"></rect>
    
    <rect x="80" y="120" width="10" height="15" rx="2" fill="white"></rect>
    <rect x="95" y="120" width="10" height="15" rx="2" fill="white"></rect>
    <rect x="110" y="120" width="10" height="15" rx="2" fill="white"></rect>
    
    <!-- Main entrance -->
    <rect x="90" y="145" width="20" height="25" rx="2" fill="white"></rect>
    
    <!-- Text - TN -->
    <text font-family="Arial" font-size="16" font-weight="bold" fill="#1a3a6c" x="60" y="35" text-anchor="middle">TN</text>
    
    <!-- Ashoka lion emblem (simplified) -->
    <circle cx="140" cy="35" r="15" fill="#ff9933"></circle>
    <path d="M135,30 L145,40 M145,30 L135,40" stroke="white" stroke-width="2" stroke-linecap="round"></path>
    <path d="M140,25 L140,45" stroke="white" stroke-width="2" stroke-linecap="round"></path>
    
    <!-- Tamil text - stylized -->
    <path d="M45,90 C40,90 35,95 35,100 C35,105 40,110 45,110 M35,100 L55,100 M55,90 C60,90 65,95 65,100 C65,105 60,110 55,110" stroke="#ff9933" stroke-width="2" fill="none"></path>
    <path d="M45,130 L55,130 M50,120 L50,140" stroke="#ff9933" stroke-width="2" fill="none"></path>
    
    <!-- Border decoration -->
    <path d="M25,100 C30,80 40,60 60,40 M175,100 C170,80 160,60 140,40" stroke="#ff9933" stroke-width="2" fill="none"></path>
    <path d="M25,100 C30,120 40,140 60,160 M175,100 C170,120 160,140 140,160" stroke="#ff9933" stroke-width="2" fill="none"></path>
  </g>
</svg> 